<svg width="17" height="14" viewBox="0 0 17 14" fill="none" xmlns="http://www.w3.org/2000/svg">
<path d="M16.2723 1.86965C15.6897 2.12077 15.0569 2.30157 14.404 2.37189C15.077 1.9701 15.5893 1.33729 15.8304 0.583941C15.2076 0.955592 14.5045 1.2268 13.7712 1.36742C13.1786 0.73461 12.3348 0.342869 11.4007 0.342869C9.60268 0.342869 8.15625 1.79934 8.15625 3.58729C8.15625 3.8384 8.18638 4.08952 8.23661 4.33059C5.54464 4.18997 3.14397 2.90425 1.54688 0.935503C1.26562 1.41765 1.10491 1.9701 1.10491 2.57278C1.10491 3.69778 1.67746 4.6922 2.55134 5.27479C2.01897 5.2547 1.51674 5.10403 1.08482 4.86296C1.08482 4.873 1.08482 4.89309 1.08482 4.90314C1.08482 6.48015 2.19978 7.78595 3.68638 8.08729C3.41518 8.1576 3.12388 8.19778 2.83259 8.19778C2.62165 8.19778 2.42076 8.17769 2.21987 8.14756C2.6317 9.43327 3.82701 10.3674 5.25335 10.3976C4.13839 11.2714 2.74219 11.7837 1.22545 11.7837C0.954241 11.7837 0.703125 11.7737 0.441964 11.7435C1.87835 12.6676 3.58594 13.2 5.42411 13.2C11.3906 13.2 14.6551 8.25805 14.6551 3.96898C14.6551 3.82836 14.6551 3.68773 14.6451 3.54711C15.2779 3.08506 15.8304 2.51251 16.2723 1.86965Z" fill="#1E0E62"/>
</svg>
