<svg width="16" height="16" viewBox="0 0 16 16" fill="none" xmlns="http://www.w3.org/2000/svg">
<path d="M12.5357 0.0571543H2.89286C1.29576 0.0571543 0 1.35291 0 2.95001V12.5929C0 14.19 1.29576 15.4857 2.89286 15.4857H8.23661V9.50916H6.22768V7.17881H8.23661V5.46117C8.23661 3.47233 9.46205 2.38751 11.24 2.38751C12.0837 2.38751 12.817 2.44778 13.0279 2.47791V4.55715L11.8025 4.5672C10.8281 4.5672 10.6473 5.01921 10.6473 5.6922V7.17881H12.9475L12.6462 9.50916H10.6473V15.4857H12.5357C14.1328 15.4857 15.4286 14.19 15.4286 12.5929V2.95001C15.4286 1.35291 14.1328 0.0571543 12.5357 0.0571543Z" fill="#1E0E62"/>
</svg>
