<svg width="24" height="16" viewBox="0 0 24 16" fill="none" xmlns="http://www.w3.org/2000/svg">
<path d="M14.4342 7.9422C14.4342 7.46006 14.3839 7.0884 14.3136 6.71675H7.36272V9.248H11.5413C11.3705 10.3228 10.2757 12.4221 7.36272 12.4221C4.85156 12.4221 2.80246 10.3429 2.80246 7.77144C2.80246 5.20001 4.85156 3.12077 7.36272 3.12077C8.79911 3.12077 9.75335 3.73349 10.2958 4.25582L12.2946 2.33729C11.0089 1.13193 9.35156 0.408717 7.36272 0.408717C3.29464 0.408717 0 3.70336 0 7.77144C0 11.8395 3.29464 15.1342 7.36272 15.1342C11.6116 15.1342 14.4342 12.1509 14.4342 7.9422ZM23.1429 6.71675H21.0435V4.61742H18.9342V6.71675H16.8348V8.82613H18.9342V10.9255H21.0435V8.82613H23.1429V6.71675Z" fill="#1E0E62"/>
</svg>
